<svg t="1746970141682" class="icon" viewBox="0 0 1024 1024" version="1.1" xmlns="http://www.w3.org/2000/svg" p-id="11418" width="200" height="200"><path d="M833.706667 437.76c-99.146667 4.906667-176 89.333333-176 188.586667v106.08A110.453333 110.453333 0 0 1 547.413333 842.666667a110.56 110.56 0 0 1-109.706666-98.506667 5.333333 5.333333 0 0 1 4.426666-5.706667 229.813333 229.813333 0 0 0 187.2-225.6V432.48a99.2 99.2 0 0 0 63.2-92.373333 99.253333 99.253333 0 0 0-99.253333-99.253334H554.666667a5.333333 5.333333 0 0 1-5.333334-5.333333V112a5.333333 5.333333 0 0 0-5.333333-5.333333H480a5.333333 5.333333 0 0 0-5.333333 5.333333v123.52a5.333333 5.333333 0 0 1-5.333334 5.333333H331.04a5.333333 5.333333 0 0 1-5.333333-5.333333V112a5.333333 5.333333 0 0 0-5.333334-5.333333h-64a5.333333 5.333333 0 0 0-5.333333 5.333333v123.52a5.333333 5.333333 0 0 1-5.333333 5.333333h-39.786667A99.253333 99.253333 0 0 0 106.666667 340.106667a99.2 99.2 0 0 0 63.2 92.373333v80.373333a229.813333 229.813333 0 0 0 188.48 226.026667 5.333333 5.333333 0 0 1 4.32 4.906667A185.333333 185.333333 0 0 0 546.88 917.333333c102.133333 0.266667 185.653333-86.56 185.653333-188.693333v-103.466667c0-57.44 42.933333-107.2 100.16-112.48a109.813333 109.813333 0 0 1 76.053334 21.333334 5.333333 5.333333 0 0 0 8.586666-4.16V456.746667a5.333333 5.333333 0 0 0-3.253333-4.96 184.32 184.32 0 0 0-80.373333-14.026667zM205.92 315.52h387.413333a24.586667 24.586667 0 0 1 0 49.173333H205.92a24.586667 24.586667 0 0 1 0-49.173333z m38.613333 197.333333V439.36H554.666667v73.493333a155.093333 155.093333 0 0 1-310.186667 0z" p-id="11419"></path></svg>